# Alias OBJ Model File
# Exported from SketchUp, (c) 2000-2012 Trimble Navigation Limited
# File units = millimeters

mtllib motion_sensor_body.mtl

g Mesh1 Group2 Group1 Model

usemtl FrontColor
v 2639 1339.43 -178.892
vt 2.40263 0
vn 0.5 0 0.866025
v 2639 1379.43 -178.892
vt 2.40263 1.5748
v 2636.59 1379.43 -177.893
vt 2.29985 1.5748
vn 0.258819 0 0.965926
v 2636.59 1339.43 -177.893
vt 2.29985 0
f 1/1/1 2/2/1 3/3/2 4/4/2 

v 2641.08 1339.43 -180.481
vt 2.18074 0
vn 0.707107 0 0.707107
v 2641.08 1379.43 -180.481
vt 2.18074 1.5748
vt 2.07796 1.5748
vt 2.07796 0
f 5/5/3 6/6/3 2/7/1 1/8/1 

v 2642.66 1339.43 -182.552
vt 1.81373 0
vn 0.866025 0 0.5
v 2642.66 1379.43 -182.552
vt 1.81373 1.5748
vt 1.71096 1.5748
vt 1.71096 0
f 7/9/4 8/10/4 6/11/3 5/12/3 

v 2643.66 1339.43 -184.964
vt 1.32663 0
vn 0.965926 0 0.258819
v 2643.66 1379.43 -184.964
vt 1.32663 1.5748
vt 1.22385 1.5748
vt 1.22385 0
f 9/13/5 10/14/5 8/15/4 7/16/4 

v 2644 1339.43 -187.552
vt 0.75262 0
vn 0.991445 0 0.130526
v 2644 1379.43 -187.552
vt 0.75262 1.5748
vt 0.649843 1.5748
vt 0.649843 0
f 11/17/6 12/18/6 10/19/5 9/20/5 

v 2643.92 1339.43 -212.861
vt 1.38067 0
vn 0.999994 0 -0.00339654
v 2643.92 1379.43 -212.861
vt 1.38067 1.5748
vt 0.384271 1.5748
vt 0.384271 0
f 13/21/7 14/22/7 12/23/7 11/24/7 

v 2643.24 1339.43 -215.382
vt 0.727051 0
vn 0.965845 0 -0.259122
v 2643.24 1379.43 -215.382
vt 0.727051 1.5748
vt 0.624274 1.5748
vt 0.624274 0
f 15/25/8 16/26/8 14/27/8 13/28/8 

v 2641.94 1339.43 -217.642
vt 0.0188329 0
vn 0.865868 0 -0.500272
v 2641.94 1379.43 -217.642
vt 0.0188329 1.5748
vt -0.0839437 1.5748
vt -0.0839437 0
f 17/29/9 18/30/9 16/31/9 15/32/9 

v 2640.09 1339.43 -219.488
vt -0.687167 0
vn 0.706885 0 -0.707329
v 2640.09 1379.43 -219.488
vt -0.687167 1.5748
vt -0.789943 1.5748
vt -0.789943 0
f 19/33/10 20/34/10 18/35/10 17/36/10 

v 2637.83 1339.43 -220.792
vt -1.34283 0
vn 0.499728 0 -0.866182
v 2637.83 1379.43 -220.792
vt -1.34283 1.5748
vt -1.44561 1.5748
vt -1.44561 0
f 21/37/11 22/38/11 20/39/11 19/40/11 

v 2635.31 1339.43 -221.467
vt -1.90349 0
vn 0.258516 0 -0.966007
v 2635.31 1379.43 -221.467
vt -1.90349 1.5748
vt -2.00627 1.5748
vt -2.00627 0
f 23/41/12 24/42/12 22/43/12 21/44/12 

v 2578.5 1344.43 -221.467
vt -0.19685 0.19685
vn 0 0 -1
v 2578.5 1379.43 -221.467
vt -0.19685 1.5748
vt -2.43316 1.5748
vt -2.43316 0
v 2578.5 1339.43 -221.467
vt -0.19685 0
f 25/45/13 26/46/13 24/47/13 23/48/13 27/49/13 

v 2573.5 1344.43 -221.467
vt 0 0.19685
v 2573.5 1379.43 -221.467
vt 0 1.5748
v 2573.5 1339.43 -221.467
vt 0 0
f 28/50/13 29/51/13 26/46/13 25/45/13 27/49/13 30/52/13 

v 2573.5 1339.43 -177.552
vn -1 0 -0
v 2573.5 1379.43 -177.552
vt -1.72893 1.5748
vt -1.72893 0.19685
vt -1.72893 0
f 31/52/14 32/51/14 29/53/14 28/54/14 30/55/14 

v 2634 1339.43 -177.552
vt 2.38189 0
vn 0 0 1
v 2634 1379.43 -177.552
vt 2.38189 1.5748
f 33/56/15 34/57/15 32/51/15 31/52/15 

vt 2.46429 0
vt 2.46429 1.5748
vt 2.36151 1.5748
vn 0.130526 0 0.991445
vt 2.36151 0
f 4/58/2 3/59/2 34/60/16 33/61/16 

v 2634 1379.43 -182.552
vt 2.38189 0.19685
vn 0 1 -0
vt 2.48379 0.013415
f 35/62/17 34/56/17 3/63/17

v 2618 1379.43 -182.552
vt 1.75197 0.19685
f 36/64/17 34/56/17 35/62/17

v 2604.5 1379.43 -182.552
vt 1.22047 0.19685
f 37/65/17 34/56/17 36/64/17

v 2602.5 1379.43 -182.552
vt 1.14173 0.19685
f 38/66/17 34/56/17 37/65/17

v 2578.5 1379.43 -182.552
vt 0.19685 0.19685
f 39/67/17 34/56/17 38/66/17

f 39/67/17 32/52/17 34/56/17

vt 0 1.72893
f 32/52/17 39/67/17 29/68/17

vt 0.19685 1.72893
f 39/67/17 26/69/17 29/68/17

v 2578.5 1379.43 -216.552
vt 0.19685 1.53543
f 26/69/17 39/67/17 40/70/17

v 2578.5 1375.43 -216.552
vt 1.53543 1.41732
vn 1 0 -0
vt 1.53543 1.5748
vt 0.19685 1.5748
v 2578.5 1344.43 -182.552
v 2578.5 1344.43 -214.552
vt 1.45669 0.19685
v 2578.5 1357.93 -214.552
vt 1.45669 0.728346
v 2578.5 1359.43 -214.552
vt 1.45669 0.787402
v 2578.5 1374.43 -214.552
vt 1.45669 1.37795
v 2578.5 1374.43 -216.552
vt 1.53543 1.37795
f 41/71/18 40/72/18 39/73/18 42/67/18 43/74/18 44/75/18 45/76/18 46/77/18 47/78/18 

vt 0.19685 1.41732
v 2582.5 1375.43 -216.552
vt 0.354331 1.41732
v 2582.5 1379.43 -216.552
vt 0.354331 1.5748
f 40/73/15 41/79/15 48/80/15 49/81/15 

vt 0.19685 1.37795
v 2582.5 1374.43 -216.552
vt 0.354331 1.37795
f 41/79/15 47/82/15 50/83/15 48/80/15 

vn -5.63993e-15 1.50398e-15 1
v 2578.5 1359.43 -216.552
vt 0.19685 0.787402
v 2582.5 1359.43 -216.552
vt 0.354331 0.787402
f 47/82/19 51/84/19 52/85/19 50/83/19 

vt 1.53543 0.787402
f 46/77/18 45/76/18 51/86/18 47/78/18 

v 2582.5 1359.43 -214.552
v 2582.5 1374.43 -214.552
f 53/85/15 54/83/15 46/82/15 45/84/15 

f 52/86/18 50/78/18 54/77/18 53/76/18 

v 2602.5 1379.43 -216.552
vt 1.14173 1.5748
vn 7.51991e-16 3.22326e-16 1
v 2582.5 1357.93 -216.552
vt 0.354331 0.728346
v 2582.5 1344.43 -216.552
vt 0.354331 0.19685
v 2602.5 1344.43 -216.552
v 2602.5 1357.93 -216.552
vt 1.14173 0.728346
v 2602.5 1359.43 -216.552
vt 1.14173 0.787402
v 2602.5 1374.43 -216.552
vt 1.14173 1.37795
v 2602.5 1375.43 -216.552
vt 1.14173 1.41732
f 55/87/20 49/81/20 48/80/20 50/83/20 52/85/20 56/88/20 57/89/20 58/66/20 59/90/20 60/91/20 61/92/20 62/93/20 

vt 2.43316 1.72893
vt 0.354331 1.53543
vt 1.14173 1.53543
f 24/94/17 49/95/17 55/96/17

f 26/69/17 49/95/17 24/94/17

f 26/69/17 40/70/17 49/95/17

v 2604.5 1379.43 -216.552
vt 1.22047 1.53543
f 24/94/17 55/96/17 63/97/17

v 2604.5 1375.43 -216.552
vt 1.22047 1.41732
vt 1.22047 1.5748
f 55/87/15 62/93/15 64/98/15 63/99/15 

v 2604.5 1374.43 -216.552
vt 1.22047 1.37795
f 65/100/15 64/98/15 62/93/15 61/92/15 

v 2634 1379.43 -216.552
vn 5.52271e-16 3.85288e-16 1
v 2604.5 1359.43 -216.552
vt 1.22047 0.787402
v 2604.5 1357.93 -216.552
vt 1.22047 0.728346
v 2604.5 1344.43 -216.552
v 2634 1344.43 -216.552
f 66/57/21 63/99/21 64/98/21 65/100/21 67/101/21 68/102/21 69/65/21 70/62/21 

vt 2.38189 1.53543
f 24/94/17 63/97/17 66/103/17

v 2635.3 1379.43 -216.382
vt 2.43284 1.52873
f 24/94/17 66/103/17 71/104/17

vt 2.1611 0.19685
vn -0.130526 0 0.991445
v 2635.3 1344.43 -216.382
vt 2.21249 0.19685
vn -0.258819 0 0.965926
vt 2.21249 1.5748
vt 2.1611 1.5748
f 70/105/22 72/106/23 71/107/23 66/108/22 

vn 0.965926 2.47411e-27 0.258819
vn -0.130526 6.45872e-28 0.991445
v 2634 1339.43 -216.552
vt 2.1611 1.18401e-27
v 2635.3 1339.43 -216.382
vt 2.21249 1.18401e-27
f 72/106/24 70/105/25 73/109/25 74/110/24 

v 2604.5 1344.43 -214.552
vt 1.22047 1.45669
v 2602.5 1344.43 -214.552
vt 1.14173 1.45669
v 2582.5 1344.43 -214.552
vt 0.354331 1.45669
vt 0.19685 1.45669
v 2602.5 1344.43 -182.552
v 2602.5 1344.43 -183.552
vt 1.14173 0.23622
v 2604.5 1344.43 -183.552
vt 1.22047 0.23622
v 2604.5 1344.43 -182.552
v 2618 1344.43 -182.552
v 2616.71 1344.43 -182.723
vt 1.70102 0.203558
v 2615.5 1344.43 -183.222
vt 1.65354 0.223223
v 2614.47 1344.43 -184.017
vt 1.61277 0.254507
v 2613.67 1344.43 -185.052
vt 1.58149 0.295276
v 2613.17 1344.43 -186.258
vt 1.56183 0.342752
v 2613 1344.43 -187.552
vt 1.55512 0.393701
v 2613 1344.43 -203.552
vt 1.55512 1.02362
v 2613.17 1344.43 -204.846
vt 1.56183 1.07457
v 2613.67 1344.43 -206.052
vt 1.58149 1.12205
v 2614.47 1344.43 -207.088
vt 1.61277 1.16282
v 2615.5 1344.43 -207.882
vt 1.65354 1.1941
v 2616.71 1344.43 -208.382
vt 1.70102 1.21376
v 2618 1344.43 -208.552
vt 1.75197 1.22047
v 2634 1344.43 -208.552
vt 2.38189 1.22047
v 2635.3 1344.43 -208.382
vt 2.43284 1.21376
v 2636.5 1344.43 -207.882
vt 2.48031 1.1941
v 2636.93 1344.43 -207.552
vt 2.49725 1.1811
v 2637.54 1344.43 -207.088
vt 2.52108 1.16282
v 2637.69 1344.43 -206.886
vt 2.52718 1.15487
v 2638.33 1344.43 -206.052
vt 2.55237 1.12205
v 2638.83 1344.43 -204.846
vt 2.57203 1.07457
v 2639 1344.43 -203.552
vt 2.57874 1.02362
v 2639 1344.43 -208.297
vt 2.57874 1.21041
v 2639 1344.43 -211.552
vt 2.57874 1.33858
v 2638.83 1344.43 -212.846
vt 2.57203 1.38953
v 2638.33 1344.43 -214.052
vt 2.55237 1.43701
v 2637.54 1344.43 -215.088
vt 2.52108 1.47778
v 2636.5 1344.43 -215.882
vt 2.48031 1.50906
f 75/111/17 76/112/17 58/96/17 57/95/17 77/113/17 43/114/17 42/67/17 78/66/17 79/115/17 80/116/17 81/65/17 82/64/17 83/117/17 84/118/17 85/119/17 86/120/17 87/121/17 88/122/17 89/123/17 90/124/17 91/125/17 92/126/17 93/127/17 94/128/17 95/129/17 96/130/17 97/131/17 98/132/17 99/133/17 100/134/17 101/135/17 102/136/17 103/137/17 104/138/17 105/139/17 106/140/17 107/141/17 108/142/17 109/143/17 110/144/17 72/104/17 70/103/17 69/97/17 

v 2604.5 1357.93 -214.552
v 2602.5 1357.93 -214.552
f 75/65/15 111/102/15 112/90/15 76/66/15 

vt 1.53543 0.19685
vn 1 1.7825e-14 1.35569e-27
vt 1.53543 0.728346
f 69/145/26 68/146/26 111/75/26 75/74/26 

vn -2.77207e-17 -1.42701e-15 1
v 2578.5 1357.93 -216.552
vt 0.19685 0.728346
v 2578.5 1339.43 -216.552
vt 0.19685 -2.19107e-15
vt 2.38189 -2.19107e-15
f 57/89/27 56/88/27 113/147/27 114/148/27 73/149/27 70/62/27 69/65/27 68/102/27 59/90/27 58/66/27 

v 2582.5 1357.93 -214.552
f 57/145/18 56/146/18 115/75/18 77/74/18 

f 56/95/17 113/70/17 44/114/17 115/113/17 

vn -1.12799e-14 0 1
f 51/84/28 113/147/28 56/88/28 52/85/28 

f 45/76/18 44/75/18 113/146/18 51/86/18 

vt 1.53543 0
v 2578.5 1339.43 -182.552
vt 0.19685 0
f 114/150/18 113/146/18 44/75/18 43/74/18 42/67/18 116/151/18 

f 77/89/15 115/88/15 44/147/15 43/67/15 

vt -1.14173 0.19685
vn 1.99544e-17 1.35129e-15 -1
v 2602.5 1357.93 -182.552
vt -1.14173 0.728346
v 2604.5 1357.93 -182.552
vt -1.22047 0.728346
vt -1.22047 0.19685
vt -1.75197 0.19685
v 2618 1339.43 -182.552
vt -1.75197 -2.66003e-16
vt -0.19685 -2.66003e-16
f 78/152/29 117/153/29 118/154/29 81/155/29 82/156/29 119/157/29 116/158/29 42/45/29 

vn -1 1.10829e-30 -3.60956e-13
vt -0.19685 0.728346
v 2602.5 1357.93 -183.552
vt -0.23622 0.728346
vt -0.23622 0.19685
f 78/45/30 117/159/30 120/160/30 79/161/30 

vt -1.14173 1.5748
v 2602.5 1375.43 -182.552
vt -1.14173 1.41732
v 2602.5 1374.43 -182.552
vt -1.14173 1.37795
v 2602.5 1359.43 -182.552
vt -1.14173 0.787402
f 39/46/13 38/162/13 121/163/13 122/164/13 123/165/13 117/153/13 78/152/13 42/45/13 

vt -1.22047 1.5748
v 2604.5 1375.43 -182.552
vt -1.22047 1.41732
f 37/166/13 124/167/13 121/163/13 38/162/13 

vn -1.20682e-15 -3.85288e-16 -1
v 2604.5 1359.43 -182.552
vt -1.22047 0.787402
v 2604.5 1374.43 -182.552
vt -1.22047 1.37795
vt -1.75197 1.5748
f 81/155/31 118/154/31 125/168/31 126/169/31 124/167/31 37/166/31 36/170/31 82/156/31 

vt 0.23622 0.19685
vn 1 1.33687e-14 1.80478e-13
v 2604.5 1357.93 -183.552
vt 0.23622 0.728346
f 80/171/32 127/172/32 118/147/32 81/67/32 

f 79/152/13 120/153/13 127/154/13 80/155/13 

f 117/66/17 118/65/17 127/116/17 120/115/17 

vn 2.25597e-14 0 -1
f 125/168/33 118/154/33 117/153/33 123/165/33 

vn 0 -1 -0
v 2602.5 1359.43 -183.552
vt -1.14173 0.23622
v 2604.5 1359.43 -183.552
vt -1.22047 0.23622
f 125/155/34 123/152/34 128/173/34 129/174/34 

vn 1.12799e-14 -1.50398e-15 -1
f 123/165/35 122/164/35 126/169/35 125/168/35 

v 2602.5 1374.43 -183.552
vt -0.23622 1.37795
vn -1 1.30635e-41 -3.60956e-13
vt -0.23622 0.787402
vt -0.19685 0.787402
vt -0.19685 1.37795
f 130/175/36 128/176/36 123/177/36 122/178/36 

v 2604.5 1374.43 -183.552
v 2603.75 1374.43 -183.552
vt -1.19094 1.37795
f 131/169/13 129/168/13 128/165/13 130/164/13 132/179/13 

vt 0.23622 0.787402
vn 1 -1.20319e-14 1.80478e-13
vt 0.23622 1.37795
f 129/180/37 131/181/37 126/82/37 125/84/37 

vt 1.19094 0.23622
f 122/66/17 126/65/17 131/116/17 132/182/17 130/115/17 

f 122/164/13 121/163/13 124/167/13 126/169/13 

vt -1.75197 0
vt -2.38189 1.5748
v 2634 1339.43 -182.552
vt -2.38189 0
f 119/183/13 82/156/13 36/170/13 35/184/13 133/185/13 

vt -1.6599 0.19685
vn 0.258819 0 -0.965926
vt -1.71129 0.19685
vn 0.130526 0 -0.991445
vt -1.71129 0
v 2616.71 1339.43 -182.723
vt -1.6599 0
f 83/186/38 82/187/39 119/188/39 134/189/38 

vt -0.19685 1.53543
vt -2.38189 1.53543
vt -2.43284 1.52873
v 2636.5 1339.43 -215.882
vt -2.48031 1.50906
v 2637.54 1339.43 -215.088
vt -2.52108 1.47778
v 2638.33 1339.43 -214.052
vt -2.55237 1.43701
v 2638.83 1339.43 -212.846
vt -2.57203 1.38953
v 2639 1339.43 -211.552
vt -2.57874 1.33858
v 2639 1339.43 -208.297
vt -2.57874 1.21041
v 2639 1339.43 -203.552
vt -2.57874 1.02362
v 2638.83 1339.43 -204.846
vt -2.57203 1.07457
v 2638.33 1339.43 -206.052
vt -2.55237 1.12205
v 2637.69 1339.43 -206.886
vt -2.52718 1.15487
v 2637.54 1339.43 -207.088
vt -2.52108 1.16282
v 2636.93 1339.43 -207.552
vt -2.49725 1.1811
v 2636.5 1339.43 -207.882
vt -2.48031 1.1941
v 2635.3 1339.43 -208.382
vt -2.43284 1.21376
v 2634 1339.43 -208.552
vt -2.38189 1.22047
v 2618 1339.43 -208.552
vt -1.75197 1.22047
v 2616.71 1339.43 -208.382
vt -1.70102 1.21376
v 2615.5 1339.43 -207.882
vt -1.65354 1.1941
v 2614.47 1339.43 -207.088
vt -1.61277 1.16282
v 2613.67 1339.43 -206.052
vt -1.58149 1.12205
v 2613.17 1339.43 -204.846
vt -1.56183 1.07457
v 2613 1339.43 -203.552
vt -1.55512 1.02362
v 2613 1339.43 -187.552
vt -1.55512 0.393701
v 2613.17 1339.43 -186.258
vt -1.56183 0.342752
v 2613.67 1339.43 -185.052
vt -1.58149 0.295276
v 2614.47 1339.43 -184.017
vt -1.61277 0.254507
v 2615.5 1339.43 -183.222
vt -1.65354 0.223223
vt -1.70102 0.203558
f 114/190/34 73/191/34 74/192/34 135/193/34 136/194/34 137/195/34 138/196/34 139/197/34 140/198/34 141/199/34 142/200/34 143/201/34 144/202/34 145/203/34 146/204/34 147/205/34 148/206/34 149/207/34 150/208/34 151/209/34 152/210/34 153/211/34 154/212/34 155/213/34 156/214/34 157/215/34 158/216/34 159/217/34 160/218/34 161/219/34 134/220/34 119/156/34 116/45/34 

vt -2.43316 1.72893
f 114/190/34 23/221/34 73/191/34

vt -0.19685 1.72893
f 23/221/34 114/190/34 27/222/34

f 116/45/34 27/222/34 114/190/34

f 31/52/34 27/222/34 116/45/34

f 27/222/34 31/52/34 30/68/34

f 31/52/34 116/45/34 33/185/34

f 33/185/34 116/45/34 119/156/34

vt -2.38189 0.19685
f 33/185/34 119/156/34 133/223/34

v 2635.3 1339.43 -182.723
vt -2.43284 0.203558
f 33/185/34 133/223/34 162/224/34

vt -2.38721 0
vn -0.130526 0 -0.991445
vt -2.38721 1.5748
v 2635.3 1379.43 -182.723
vt -2.43859 1.5748
vn -0.258819 0 -0.965926
vt -2.43859 0
f 133/225/40 35/226/40 163/227/41 162/228/41 

vt 2.43284 0.203558
f 35/62/17 3/63/17 163/229/17

v 2636.5 1379.43 -183.222
vt 2.48031 0.223223
f 163/229/17 3/63/17 164/230/17

v 2637.54 1379.43 -184.017
vt 2.52108 0.254507
f 164/230/17 3/63/17 165/231/17

vt 2.57874 0.0527459
f 165/231/17 3/63/17 2/232/17

v 2638.33 1379.43 -185.052
vt 2.55237 0.295276
f 165/231/17 2/232/17 166/233/17

v 2638.83 1379.43 -186.258
vt 2.57203 0.342752
f 166/233/17 2/232/17 167/234/17

v 2639 1379.43 -187.552
vt 2.57874 0.393701
f 167/234/17 2/232/17 168/235/17

vt 2.66028 0.115312
f 168/235/17 2/232/17 6/236/17

v 2639 1379.43 -203.552
f 168/235/17 6/236/17 169/138/17

v 2639 1379.43 -208.297
f 169/138/17 6/236/17 170/139/17

v 2639 1379.43 -211.552
f 170/139/17 6/236/17 171/140/17

vt 2.62146 1.651
f 171/140/17 6/236/17 20/237/17

vt 2.69416 1.57835
f 20/237/17 6/236/17 18/238/17

vt 2.72284 0.19685
f 18/238/17 6/236/17 8/239/17

vt 2.74557 1.48936
f 18/238/17 8/239/17 16/240/17

vt 2.76218 0.291804
f 16/240/17 8/239/17 10/241/17

vt 2.77221 1.39009
f 16/240/17 10/241/17 14/242/17

vt 2.77559 0.393701
f 14/242/17 10/241/17 12/243/17

v 2638.83 1379.43 -212.846
f 20/237/17 172/141/17 171/140/17

v 2638.33 1379.43 -214.052
f 20/237/17 173/142/17 172/141/17

vt 2.53244 1.70236
f 22/244/17 173/142/17 20/237/17

v 2637.54 1379.43 -215.088
f 22/244/17 174/143/17 173/142/17

v 2636.5 1379.43 -215.882
f 22/244/17 175/144/17 174/143/17

f 24/94/17 175/144/17 22/244/17

f 24/94/17 71/104/17 175/144/17

vt 1.66263 0.19685
vt 1.71402 0.19685
vn -0.5 0 0.866025
vt 1.71402 1.5748
vt 1.66263 1.5748
f 72/245/23 110/246/42 175/247/42 71/248/23 

vt -1.66263 0.19685
vt -1.71402 0.19685
vn 0.5 1.59999e-27 -0.866025
vt -1.71402 0
vt -1.66263 0
f 72/249/24 110/250/43 135/251/43 74/252/24 

vt -1.04911 0.19685
vt -1.1005 0.19685
vn 0.707107 -8.51599e-29 -0.707107
vt -1.1005 -8.58866e-27
vt -1.04911 -8.58866e-27
f 110/253/43 109/254/44 136/255/44 135/256/43 

vt 1.04911 0.19685
vt 1.1005 0.19685
vn -0.707107 0 0.707107
vt 1.1005 1.5748
vt 1.04911 1.5748
f 110/257/42 109/258/45 174/259/45 175/260/42 

vt 0.362339 0.19685
vt 0.413728 0.19685
vn -0.866025 0 0.5
vt 0.413728 1.5748
vt 0.362339 1.5748
f 109/261/45 108/262/46 173/263/46 174/264/45 

vt -0.362339 0.19685
vt -0.413728 0.19685
vn 0.866025 1.30363e-18 -0.5
vt -0.413728 9.68931e-27
vt -0.362339 9.68931e-27
f 109/265/44 108/266/47 137/267/47 136/268/44 

vt 0.350874 0.19685
vt 0.299485 0.19685
vn 0.965926 1.30363e-18 -0.258819
vt 0.299485 -7.51705e-18
vt 0.350874 -7.51705e-18
f 108/269/47 107/270/48 138/271/48 137/272/47 

vt -0.350874 0.19685
vt -0.299485 0.19685
vn -0.965926 0 0.258819
vt -0.299485 1.5748
vt -0.350874 1.5748
f 108/273/46 107/274/49 172/275/49 173/276/46 

vt -1.04193 0.19685
vt -0.990538 0.19685
vn -0.991445 0 0.130526
vt -0.990538 1.5748
vt -1.04193 1.5748
f 107/277/49 106/278/50 171/279/50 172/280/49 

vt 1.04193 0.19685
vt 0.990538 0.19685
vn 0.991445 -1.70061e-28 -0.130526
vt 0.990538 4.64505e-28
vt 1.04193 4.64505e-28
f 107/281/48 106/282/51 139/283/51 138/284/48 

vt 1.33858 0.19685
vt 1.21041 0.19685
vt 1.21041 0
vt 1.33858 0
f 106/285/18 105/286/18 140/287/18 139/288/18 

vt -1.33858 0.19685
vt -1.21041 0.19685
vt -1.21041 1.5748
vt -1.33858 1.5748
f 106/289/14 105/290/14 170/291/14 171/292/14 

vt -1.02362 0.19685
vt -1.02362 1.5748
f 105/290/14 104/293/14 169/294/14 170/291/14 

vt 1.02362 0.19685
vt 1.02362 0
f 105/286/18 104/295/18 141/296/18 140/287/18 

v 2639 1339.43 -187.552
vt -0.393701 0
vt -0.393701 1.5748
vt -1.02362 0
f 176/297/14 168/298/14 169/294/14 104/293/14 141/299/14 

v 2638.83 1339.43 -186.258
vt -0.675537 0
vn -0.965926 0 -0.258819
vt -0.675537 1.5748
vt -0.726926 1.5748
vn -0.991445 0 -0.130526
vt -0.726926 0
f 177/300/52 167/301/52 168/302/53 176/303/53 

v 2638.33 1339.43 -185.052
vt -1.24955 0
vn -0.866025 0 -0.5
vt -1.24955 1.5748
vt -1.30094 1.5748
vt -1.30094 0
f 178/304/54 166/305/54 167/306/52 177/307/52 

v 2637.54 1339.43 -184.017
vt -1.73665 0
vn -0.707107 0 -0.707107
vt -1.73665 1.5748
vt -1.78804 1.5748
vt -1.78804 0
f 179/308/55 165/309/55 166/310/54 178/311/54 

v 2636.5 1339.43 -183.222
vt -2.10366 0
vn -0.5 0 -0.866025
vt -2.10366 1.5748
vt -2.15504 1.5748
vt -2.15504 0
f 180/312/56 164/313/56 165/314/55 179/315/55 

vt -2.32555 0
vt -2.32555 1.5748
vt -2.37694 1.5748
vt -2.37694 0
f 162/316/41 163/317/41 164/318/56 180/319/56 

vt -2.48379 0.013415
vt -2.48031 0.223223
f 4/320/34 162/224/34 180/321/34

f 33/185/34 162/224/34 4/320/34

vt -2.52108 0.254507
f 4/320/34 180/321/34 179/322/34

vt -2.57874 0.0527459
f 4/320/34 179/322/34 1/323/34

vt -2.55237 0.295276
f 1/323/34 179/322/34 178/324/34

vt -2.57203 0.342752
f 1/323/34 178/324/34 177/325/34

vt -2.57874 0.393701
f 1/323/34 177/325/34 176/326/34

vt -2.62146 1.651
f 176/326/34 19/327/34 1/323/34

f 141/199/34 19/327/34 176/326/34

f 140/198/34 19/327/34 141/199/34

f 139/197/34 19/327/34 140/198/34

f 138/196/34 19/327/34 139/197/34

f 137/195/34 19/327/34 138/196/34

vt -2.53244 1.70236
f 137/195/34 21/328/34 19/327/34

f 136/194/34 21/328/34 137/195/34

f 135/193/34 21/328/34 136/194/34

f 135/193/34 23/221/34 21/328/34

f 74/192/34 23/221/34 135/193/34

f 73/191/34 23/221/34 74/192/34

vt -2.66028 0.115312
f 1/323/34 19/327/34 5/329/34

vt -2.69416 1.57835
f 5/329/34 19/327/34 17/330/34

vt -2.72284 0.19685
f 5/329/34 17/330/34 7/331/34

vt -2.74557 1.48936
f 7/331/34 17/330/34 15/332/34

vt -2.76218 0.291804
f 7/331/34 15/332/34 9/333/34

vt -2.77221 1.39009
f 9/333/34 15/332/34 13/334/34

vt -2.77559 0.393701
f 9/333/34 13/334/34 11/335/34

vt -0.678272 0.19685
vt -0.72966 0.19685
vt -0.72966 0
vt -0.678272 0
f 104/336/50 103/337/49 142/338/49 141/339/50 

vt -0.00849958 0.19685
vt -0.0598878 0.19685
vt -0.0598878 0
vt -0.00849958 0
f 103/340/49 102/341/46 143/342/46 142/343/49 

vt 0.663603 0.19685
vt 0.622233 0.19685
vn -0.793353 0 0.608761
vt 0.622233 0
vt 0.663603 0
f 102/344/46 101/345/57 144/346/57 143/347/46 

vt 0.612215 0.19685
vt 0.612215 0
f 101/345/57 100/348/45 145/349/45 144/346/57 

vt 1.29223 0.19685
vt 1.26219 0.19685
vn -0.608761 0 0.793353
vt 1.26219 0
vt 1.29223 0
f 100/350/45 99/351/58 146/352/58 145/353/45 

vt 1.24084 0.19685
vt 1.24084 0
f 99/351/58 98/354/42 147/355/42 146/352/58 

vt 1.83455 0.19685
vt 1.78316 0.19685
vt 1.78316 0
vt 1.83455 0
f 98/356/42 97/357/23 148/358/23 147/359/42 

vt 2.2536 0.19685
vt 2.20221 0.19685
vt 2.20221 0
vt 2.2536 0
f 97/360/23 96/361/22 149/362/22 148/363/23 

vn -2.81997e-15 0 1
vt 1.75197 0
f 96/62/59 95/64/59 150/364/59 149/56/59 

vt 1.89628 0.19685
vt 1.8449 0.19685
vt 1.8449 0
vt 1.89628 0
f 95/365/16 94/366/2 151/367/2 150/368/16 

vt 2.03603 0.19685
vt 1.98464 0.19685
vt 1.98464 0
vt 2.03603 0
f 94/369/2 93/370/1 152/371/1 151/372/2 

vt 2.03877 0.19685
vt 1.98738 0.19685
vt 1.98738 0
vt 2.03877 0
f 93/373/1 92/374/3 153/375/3 152/376/1 

vt 1.90432 0.19685
vt 1.85293 0.19685
vt 1.85293 0
vt 1.90432 0
f 92/377/3 91/378/4 154/379/4 153/380/3 

vt 1.64185 0.19685
vt 1.59046 0.19685
vt 1.59046 0
vt 1.64185 0
f 91/381/4 90/382/5 155/383/5 154/384/4 

vt 1.26924 0.19685
vt 1.21785 0.19685
vt 1.21785 0
vt 1.26924 0
f 90/385/5 89/386/6 156/387/6 155/388/5 

vt 0.393701 0.19685
vt 0.393701 0
f 89/295/18 88/389/18 157/390/18 156/296/18 

vt 0.187349 0.19685
vn 0.991445 0 -0.130526
vt 0.135961 0.19685
vn 0.965926 0 -0.258819
vt 0.135961 0
vt 0.187349 0
f 88/391/60 87/392/61 158/393/61 157/394/60 

vt -0.281023 0.19685
vt -0.332411 0.19685
vn 0.866025 0 -0.5
vt -0.332411 0
vt -0.281023 0
f 87/395/61 86/396/62 159/397/62 158/398/61 

vt -0.728493 0.19685
vt -0.779881 0.19685
vn 0.707107 0 -0.707107
vt -0.779881 0
vt -0.728493 0
f 86/399/62 85/400/63 160/401/63 159/402/62 

vt -1.12457 0.19685
vt -1.17595 0.19685
vn 0.5 0 -0.866025
vt -1.17595 0
vt -1.12457 0
f 85/403/63 84/404/64 161/405/64 160/406/63 

vt -1.44225 0.19685
vt -1.49364 0.19685
vt -1.49364 0
vt -1.44225 0
f 84/407/64 83/408/38 134/409/38 161/410/64 

vt -0.354331 1.53543
vt -0.354331 1.45669
vt -0.19685 1.45669
f 51/190/34 52/411/34 53/412/34 45/413/34 

f 68/97/17 59/96/17 112/112/17 111/111/17 

vn -2.25597e-14 0 1
f 68/102/65 67/101/65 60/91/65 59/90/65 

vn -1.12799e-14 1.50398e-15 1
f 61/92/66 60/91/66 67/101/66 65/100/66 

v 2602.5 1359.43 -214.552
vt -1.45669 0.787402
v 2602.5 1374.43 -214.552
vt -1.45669 1.37795
vt -1.53543 1.37795
vt -1.53543 0.787402
f 181/414/14 182/415/14 61/416/14 60/417/14 

v 2604.5 1359.43 -214.552
v 2604.5 1374.43 -214.552
v 2603.75 1374.43 -214.552
vt 1.19094 1.37795
f 182/92/15 181/91/15 183/101/15 184/100/15 185/418/15 

vt -1.14173 1.53543
vt -1.22047 1.53543
vt -1.22047 1.45669
vt -1.14173 1.45669
f 60/419/34 67/420/34 183/421/34 181/422/34 

vn 1 4.01062e-15 2.71448e-27
f 67/86/67 65/78/67 184/77/67 183/76/67 

vt 1.19094 1.45669
f 65/97/17 61/96/17 182/112/17 185/423/17 184/111/17 

vt -1.45669 0.19685
vt -1.45669 0.728346
vt -1.53543 0.728346
vt -1.53543 0.19685
f 76/424/14 112/425/14 59/426/14 58/427/14 

f 47/70/17 46/114/17 54/113/17 50/95/17 

